<svg width="91" height="25" viewBox="0 0 91 25" fill="none" xmlns="http://www.w3.org/2000/svg">
<path d="M0.0800002 24V8.128H3.728L4.112 11.104C4.688 10.08 5.46667 9.26933 6.448 8.672C7.45067 8.05333 8.624 7.744 9.968 7.744V12.064H8.816C7.92 12.064 7.12 12.2027 6.416 12.48C5.712 12.7573 5.15733 13.2373 4.752 13.92C4.368 14.6027 4.176 15.552 4.176 16.768V24H0.0800002ZM18.1983 24.384C16.5983 24.384 15.1796 24.0427 13.9423 23.36C12.7049 22.6773 11.7343 21.7173 11.0303 20.48C10.3263 19.2427 9.97425 17.8133 9.97425 16.192C9.97425 14.5493 10.3156 13.088 10.9983 11.808C11.7023 10.528 12.6623 9.536 13.8783 8.832C15.1156 8.10667 16.5663 7.744 18.2303 7.744C19.7876 7.744 21.1636 8.08533 22.3583 8.768C23.5529 9.45067 24.4809 10.3893 25.1423 11.584C25.8249 12.7573 26.1663 14.0693 26.1663 15.52C26.1663 15.7547 26.1556 16 26.1343 16.256C26.1343 16.512 26.1236 16.7787 26.1023 17.056H14.0383C14.1236 18.2933 14.5503 19.264 15.3183 19.968C16.1076 20.672 17.0569 21.024 18.1663 21.024C18.9983 21.024 19.6916 20.8427 20.2463 20.48C20.8223 20.096 21.2489 19.6053 21.5263 19.008H25.6863C25.3876 20.0107 24.8863 20.928 24.1823 21.76C23.4996 22.5707 22.6463 23.2107 21.6223 23.68C20.6196 24.1493 19.4783 24.384 18.1983 24.384ZM18.2303 11.072C17.2276 11.072 16.3423 11.36 15.5743 11.936C14.8063 12.4907 14.3156 13.344 14.1023 14.496H22.0063C21.9423 13.4507 21.5583 12.6187 20.8543 12C20.1503 11.3813 19.2756 11.072 18.2303 11.072ZM37.0193 24.384C35.8246 24.384 34.7793 24.16 33.8833 23.712C32.9873 23.264 32.2619 22.6347 31.7073 21.824L31.2593 24H27.6113V0.959999H31.7073V10.4C32.2193 9.696 32.8913 9.07733 33.7233 8.544C34.5766 8.01067 35.6753 7.744 37.0193 7.744C38.5126 7.744 39.8459 8.10667 41.0193 8.832C42.1926 9.55733 43.1206 10.5493 43.8033 11.808C44.4859 13.0667 44.8273 14.496 44.8273 16.096C44.8273 17.696 44.4859 19.1253 43.8033 20.384C43.1206 21.6213 42.1926 22.6027 41.0193 23.328C39.8459 24.032 38.5126 24.384 37.0193 24.384ZM36.1553 20.8C37.4566 20.8 38.5339 20.3627 39.3873 19.488C40.2406 18.6133 40.6673 17.4827 40.6673 16.096C40.6673 14.7093 40.2406 13.568 39.3873 12.672C38.5339 11.776 37.4566 11.328 36.1553 11.328C34.8326 11.328 33.7446 11.776 32.8913 12.672C32.0593 13.5467 31.6433 14.6773 31.6433 16.064C31.6433 17.4507 32.0593 18.592 32.8913 19.488C33.7446 20.3627 34.8326 20.8 36.1553 20.8ZM51.9583 24.384C50.5929 24.384 49.4729 24.1707 48.5983 23.744C47.7236 23.296 47.0729 22.7093 46.6463 21.984C46.2196 21.2587 46.0063 20.4587 46.0063 19.584C46.0063 18.112 46.5823 16.9173 47.7343 16C48.8863 15.0827 50.6143 14.624 52.9183 14.624H56.9503V14.24C56.9503 13.152 56.6409 12.352 56.0223 11.84C55.4036 11.328 54.6356 11.072 53.7183 11.072C52.8863 11.072 52.1609 11.2747 51.5423 11.68C50.9236 12.064 50.5396 12.64 50.3903 13.408H46.3903C46.4969 12.256 46.8809 11.2533 47.5423 10.4C48.2249 9.54667 49.0996 8.896 50.1663 8.448C51.2329 7.97867 52.4276 7.744 53.7503 7.744C56.0116 7.744 57.7929 8.30933 59.0943 9.44C60.3956 10.5707 61.0463 12.1707 61.0463 14.24V24H57.5583L57.1743 21.44C56.7049 22.2933 56.0436 22.9973 55.1903 23.552C54.3583 24.1067 53.2809 24.384 51.9583 24.384ZM52.8863 21.184C54.0596 21.184 54.9663 20.8 55.6063 20.032C56.2676 19.264 56.6836 18.3147 56.8543 17.184H53.3663C52.2783 17.184 51.4996 17.3867 51.0303 17.792C50.5609 18.176 50.3263 18.656 50.3263 19.232C50.3263 19.8507 50.5609 20.3307 51.0303 20.672C51.4996 21.0133 52.1183 21.184 52.8863 21.184ZM69.515 24.384C68.107 24.384 66.8697 24.16 65.803 23.712C64.7363 23.2427 63.883 22.6027 63.243 21.792C62.603 20.9813 62.219 20.0427 62.091 18.976H66.219C66.347 19.5947 66.6883 20.128 67.243 20.576C67.819 21.0027 68.555 21.216 69.451 21.216C70.347 21.216 70.9977 21.0347 71.403 20.672C71.8297 20.3093 72.043 19.8933 72.043 19.424C72.043 18.7413 71.7443 18.2827 71.147 18.048C70.5497 17.792 69.7177 17.5467 68.651 17.312C67.9683 17.1627 67.275 16.9813 66.571 16.768C65.867 16.5547 65.2163 16.288 64.619 15.968C64.043 15.6267 63.5737 15.2 63.211 14.688C62.8483 14.1547 62.667 13.504 62.667 12.736C62.667 11.328 63.2217 10.144 64.331 9.184C65.4617 8.224 67.0403 7.744 69.067 7.744C70.9443 7.744 72.4377 8.18133 73.547 9.056C74.6777 9.93067 75.3497 11.136 75.563 12.672H71.691C71.4563 11.4987 70.571 10.912 69.035 10.912C68.267 10.912 67.6697 11.0613 67.243 11.36C66.8377 11.6587 66.635 12.032 66.635 12.48C66.635 12.9493 66.9443 13.3227 67.563 13.6C68.1817 13.8773 69.003 14.1333 70.027 14.368C71.1363 14.624 72.1497 14.912 73.067 15.232C74.0057 15.5307 74.7523 15.9893 75.307 16.608C75.8617 17.2053 76.139 18.0693 76.139 19.2C76.1603 20.1813 75.9043 21.0667 75.371 21.856C74.8377 22.6453 74.0697 23.264 73.067 23.712C72.0643 24.16 70.8803 24.384 69.515 24.384ZM84.3275 24.384C82.9195 24.384 81.6822 24.16 80.6155 23.712C79.5488 23.2427 78.6955 22.6027 78.0555 21.792C77.4155 20.9813 77.0315 20.0427 76.9035 18.976H81.0315C81.1595 19.5947 81.5008 20.128 82.0555 20.576C82.6315 21.0027 83.3675 21.216 84.2635 21.216C85.1595 21.216 85.8102 21.0347 86.2155 20.672C86.6422 20.3093 86.8555 19.8933 86.8555 19.424C86.8555 18.7413 86.5568 18.2827 85.9595 18.048C85.3622 17.792 84.5302 17.5467 83.4635 17.312C82.7808 17.1627 82.0875 16.9813 81.3835 16.768C80.6795 16.5547 80.0288 16.288 79.4315 15.968C78.8555 15.6267 78.3862 15.2 78.0235 14.688C77.6608 14.1547 77.4795 13.504 77.4795 12.736C77.4795 11.328 78.0342 10.144 79.1435 9.184C80.2742 8.224 81.8528 7.744 83.8795 7.744C85.7568 7.744 87.2502 8.18133 88.3595 9.056C89.4902 9.93067 90.1622 11.136 90.3755 12.672H86.5035C86.2688 11.4987 85.3835 10.912 83.8475 10.912C83.0795 10.912 82.4822 11.0613 82.0555 11.36C81.6502 11.6587 81.4475 12.032 81.4475 12.48C81.4475 12.9493 81.7568 13.3227 82.3755 13.6C82.9942 13.8773 83.8155 14.1333 84.8395 14.368C85.9488 14.624 86.9622 14.912 87.8795 15.232C88.8182 15.5307 89.5648 15.9893 90.1195 16.608C90.6742 17.2053 90.9515 18.0693 90.9515 19.2C90.9728 20.1813 90.7168 21.0667 90.1835 21.856C89.6502 22.6453 88.8822 23.264 87.8795 23.712C86.8768 24.16 85.6928 24.384 84.3275 24.384Z" fill="#061816"/>
</svg>
